<svg xmlns="http://www.w3.org/2000/svg" width="1600" height="1000" viewBox="0 0 1600 1000" role="img" aria-label="Smithers Hub control room">
  <defs>
    <linearGradient id="g" x1="0" x2="1" y1="0" y2="1">
      <stop offset="0" stop-color="#0f766e"/>
      <stop offset=".5" stop-color="#1d4ed8"/>
      <stop offset="1" stop-color="#d97706"/>
    </linearGradient>
  </defs>
  <rect width="1600" height="1000" fill="#17212b"/>
  <path d="M0 680 C260 560 410 790 650 650 C920 494 1050 596 1600 360 L1600 1000 L0 1000 Z" fill="url(#g)" opacity=".62"/>
  <g opacity=".9">
    <rect x="140" y="160" width="1320" height="520" rx="24" fill="#f8fafc"/>
    <rect x="178" y="204" width="260" height="420" rx="14" fill="#e2e8f0"/>
    <rect x="480" y="204" width="410" height="160" rx="14" fill="#dbeafe"/>
    <rect x="480" y="394" width="410" height="230" rx="14" fill="#ccfbf1"/>
    <rect x="930" y="204" width="492" height="420" rx="14" fill="#ffedd5"/>
    <g fill="#0f172a" opacity=".72">
      <rect x="210" y="240" width="180" height="20" rx="5"/>
      <rect x="210" y="292" width="150" height="16" rx="5"/>
      <rect x="210" y="330" width="190" height="16" rx="5"/>
      <rect x="520" y="246" width="240" height="20" rx="5"/>
      <rect x="520" y="442" width="300" height="18" rx="5"/>
      <rect x="970" y="246" width="310" height="20" rx="5"/>
      <rect x="970" y="304" width="390" height="16" rx="5"/>
      <rect x="970" y="342" width="280" height="16" rx="5"/>
      <rect x="970" y="448" width="360" height="16" rx="5"/>
    </g>
  </g>
  <g stroke="#ffffff" stroke-width="5" opacity=".42" fill="none">
    <path d="M445 405 C520 430 520 520 600 520"/>
    <path d="M890 295 C940 300 930 420 980 430"/>
    <path d="M750 650 C820 740 980 710 1050 780"/>
  </g>
</svg>
